
<?xml version="1.0" encoding="utf-8"?>
<svg xmlns="http://www.w3.org/2000/svg" viewBox="72.368 15.7215 208.2763 176.1075" width="208.276px" height="176.107px">
  <path d="M0 0 C5.56929024 0.09552285 10.9719499 0.57240043 16.47583008 1.42456055 C17.33466797 1.55693115 18.19350586 1.68930176 19.07836914 1.82568359 C43.05496124 5.71195139 66.92457877 12.07645088 84.16333008 30.23706055 C85.53813201 32.20878503 86.8822968 34.20316489 88.16333008 36.23706055 C89.16299805 35.0769043 89.16299805 35.0769043 90.18286133 33.89331055 C107.87365572 13.72950472 129.92902372 6.79605717 155.60083008 1.92456055 C156.48786621 1.75287354 157.37490234 1.58118652 158.28881836 1.40429688 C164.5012823 0.29480429 170.85971516 -0.48266254 177.16333008 0.23706055 C179.69856819 2.77229866 179.41950155 3.65110439 179.43748474 7.16490173 C179.44745987 8.20667068 179.457435 9.24843964 179.4677124 10.32177734 C179.46837708 11.46936523 179.46904175 12.61695313 179.46972656 13.79931641 C179.47805008 15.00423233 179.4863736 16.20914825 179.49494934 17.45057678 C179.51495779 20.76054253 179.52569734 24.07025638 179.53077579 27.38026118 C179.53441526 29.44704143 179.54065313 31.51379733 179.54777718 33.58056831 C179.57228193 40.78760978 179.58532598 47.99457916 179.58886719 55.20166016 C179.59250434 61.92512935 179.62240927 68.64814255 179.66427177 75.3714723 C179.69893125 81.13968062 179.71441486 86.9077375 179.71511322 92.67604929 C179.71590748 96.12312558 179.72471308 99.56973754 179.75311089 103.01670647 C179.78406343 106.85978849 179.77525274 110.70221159 179.76269531 114.54541016 C179.78494675 116.26375565 179.78494675 116.26375565 179.80764771 118.01681519 C179.79788406 119.06140396 179.78812042 120.10599274 179.77806091 121.18223572 C179.78007224 122.09129134 179.78208357 123.00034697 179.78415585 123.93694973 C179.16333008 126.23706055 179.16333008 126.23706055 176.78398228 128.0147028 C174.06333454 129.28370173 171.87951505 129.81637222 168.90942383 130.1940918 C167.90000732 130.33371338 166.89059082 130.47333496 165.85058594 130.6171875 C164.7781665 130.75987061 163.70574707 130.90255371 162.60083008 131.04956055 C142.23320007 134.05326568 113.33628454 140.04967363 99.10083008 156.42456055 C96.10862401 160.76808548 95.06795984 162.95701727 95.16333008 168.23706055 C95.6505957 167.82456055 96.13786133 167.41206055 96.63989258 166.98706055 C120.80204154 147.30589193 148.91165917 140.60632247 179.16333008 137.23706055 C179.29859624 139.82214725 179.3975066 142.40014807 179.47583008 144.98706055 C179.53867187 146.08147461 179.53867187 146.08147461 179.6027832 147.19799805 C179.68330242 150.74084355 179.4594179 152.83033948 177.35473633 155.72143555 C172.55293042 158.00185255 168.03908007 157.74144547 162.78833008 157.73706055 C139.6963141 158.21576469 114.43929274 162.04409384 94.22216797 173.87280273 C89.77791208 176.38015725 89.77791208 176.38015725 86.54614258 175.62768555 C85.75981445 175.1687793 84.97348633 174.70987305 84.16333008 174.23706055 C83.35637695 173.8090918 82.54942383 173.38112305 81.71801758 172.94018555 C80.8337207 172.4606543 79.94942383 171.98112305 79.03833008 171.48706055 C57.44167159 160.70188396 32.13065307 156.94490815 8.19848633 157.31518555 C7.31034744 157.32765823 6.42220856 157.34013092 5.50715637 157.35298157 C1.80377766 157.40771804 -1.8989583 157.46469092 -5.6015625 157.55932617 C-8.3350363 157.6258861 -11.06742228 157.6606518 -13.80151367 157.69018555 C-15.05157448 157.73360077 -15.05157448 157.73360077 -16.32688904 157.77789307 C-17.10862991 157.78149841 -17.89037079 157.78510376 -18.69580078 157.78881836 C-19.37686386 157.80293762 -20.05792694 157.81705688 -20.7596283 157.831604 C-24.38393653 156.79416271 -25.65049389 155.31169358 -27.83666992 152.23706055 C-28.57107921 148.29670533 -28.48856475 144.40812895 -28.43603516 140.41015625 C-28.43997787 139.21294952 -28.44392059 138.0157428 -28.44798279 136.78225708 C-28.45353855 133.50733417 -28.43681937 130.23346111 -28.40950274 126.95867562 C-28.38564597 123.53099532 -28.38861752 120.10333142 -28.38819885 116.67558289 C-28.38357437 110.92305828 -28.35995223 105.17086522 -28.32373047 99.41845703 C-28.28193942 92.76377817 -28.26441202 86.10939745 -28.26111072 79.45459491 C-28.2575147 72.37080341 -28.23865066 65.28711942 -28.21399045 58.20337272 C-28.20775656 56.16051232 -28.20412368 54.1176601 -28.20095634 52.07479286 C-28.19195438 48.27498497 -28.16960028 44.47550189 -28.14306641 40.67578125 C-28.14240173 39.54068619 -28.14173706 38.40559113 -28.14105225 37.23609924 C-28.13107712 36.20563477 -28.12110199 35.17517029 -28.11082458 34.11347961 C-28.10617408 33.214773 -28.10152357 32.31606638 -28.09673214 31.39012623 C-27.83666992 29.23706055 -27.83666992 29.23706055 -25.83666992 27.23706055 C-22.79760742 27.04174805 -22.79760742 27.04174805 -19.21166992 27.11206055 C-17.42889648 27.13913086 -17.42889648 27.13913086 -15.61010742 27.16674805 C-14.69487305 27.18995117 -13.77963867 27.2131543 -12.83666992 27.23706055 C-12.8352449 28.52887741 -12.83381989 29.82069427 -12.83235168 31.1516571 C-12.81568868 43.32052482 -12.77293606 55.48905784 -12.70457935 67.65774822 C-12.67027563 73.91397085 -12.64519405 80.1699484 -12.64111328 86.42626953 C-12.6368377 92.46300346 -12.60843555 98.4991842 -12.56323814 104.53574562 C-12.55023959 106.83980908 -12.54596375 109.14393866 -12.55051613 111.44803429 C-12.5554051 114.67348481 -12.5294033 117.89730797 -12.49609375 121.12255859 C-12.50471939 122.07705902 -12.51334503 123.03155945 -12.52223206 124.01498413 C-12.44273955 128.60096328 -12.33725958 130.59405885 -9.44113159 134.31410217 C-6.82951632 136.24234228 -5.30920131 136.99931853 -2.13745117 137.47143555 C-0.8296167 137.67929687 -0.8296167 137.67929687 0.50463867 137.89135742 C1.82069092 138.06248047 1.82069092 138.06248047 3.16333008 138.23706055 C3.96722168 138.34598633 4.77111328 138.45491211 5.59936523 138.56713867 C7.21222544 138.77618271 8.82604304 138.97795454 10.44067383 139.17285156 C34.92281844 142.20718516 63.18775509 150.26148556 81.16333008 168.23706055 C81.05371418 162.09857034 79.83545136 158.68799101 75.55786133 154.24487305 C57.27911876 138.91816231 31.37787027 133.76600566 8.43920898 130.66821289 C7.42133301 130.52335449 6.40345703 130.37849609 5.35473633 130.22924805 C4.44925049 130.1092041 3.54376465 129.98916016 2.61083984 129.86547852 C-0.25809471 129.12885632 -1.68614343 128.27160007 -3.83666992 126.23706055 C-4.33444786 123.93694973 -4.33444786 123.93694973 -4.33114624 121.18223572 C-4.33953522 120.13764694 -4.34792419 119.09305817 -4.35656738 118.01681519 C-4.33970886 116.2984697 -4.33970886 116.2984697 -4.32250977 114.54541016 C-4.32630646 113.33874191 -4.33010315 112.13207367 -4.33401489 110.88883972 C-4.34016083 107.57869988 -4.3284015 104.26955634 -4.30810881 100.95953441 C-4.29055145 97.4984655 -4.2940626 94.03741357 -4.29483032 90.5763092 C-4.29295702 84.7648109 -4.27558807 78.95352141 -4.24829102 73.14208984 C-4.21682502 66.41815689 -4.2062953 59.69445255 -4.20776212 52.9704513 C-4.20898177 46.50712462 -4.19878019 40.04387258 -4.1821785 33.58056831 C-4.17510808 30.82741272 -4.17145133 28.07428354 -4.17039108 25.32111931 C-4.16801353 21.48043573 -4.14860818 17.63994332 -4.12719727 13.79931641 C-4.12810364 12.65172852 -4.12901001 11.50414062 -4.12994385 10.32177734 C-4.12141388 9.28000839 -4.11288391 8.23823944 -4.10409546 7.16490173 C-4.10074377 6.25622313 -4.09739208 5.34754454 -4.09393883 4.41133022 C-3.75795054 1.57177548 -2.91521895 0.37626979 0 0 Z " fill="#2BA0A2" transform="matrix(1, 0, 0, 1, 100.83666992187503, 15.762939453125014)"/>
</svg>
